{"title":"Asmodexia 2014 WEBRip Eng HC Subs LoneWolf666","uid":11144557,"size":801645175,"categoryP":"video","categoryS":"movies","magnet":"?xt=urn:btih:10c281b2d02d5acb0d5c1fa44dbebf0936f2d3e7&amp;dn=Asmodexia+2014+WEBRip+Eng+HC+Subs+LoneWolf666&amp;tr=udp%3A%2F%2Ftracker.openbittorrent.com%3A80&amp;tr=udp%3A%2F%2Fopen.demonii.com%3A1337&amp;tr=udp%3A%2F%2Ftracker.coppersurfer.tk%3A6969&amp;tr=udp%3A%2F%2Fexodus.desync.com%3A6969","seeders":15,"leechers":5,"uploader":"pitoniso","files":-1,"time":1412230572,"description":"Video\nID : 0\nFormat : MPEG-4 Visual\nFormat profile : Advanced Simple@L5\nFormat settings, BVOP : 2\nFormat settings, QPel : No\nFormat settings, GMC : No warppoints\nFormat settings, Matrix : Default (H.263)\nMuxing mode : Packed bitstream\nCodec ID : XVID\nCodec ID/Hint : XviD\nDuration : 1h 20mn\nBit rate : 1 144 Kbps\nWidth : 640 pixels\nHeight : 360 pixels\nDisplay aspect ratio : 16:9\nFrame rate : 29.970 fps\nColor space : YUV\nChroma subsampling : 4:2:0\nBit depth : 8 bits\nScan type : Progressive\nCompression mode : Lossy\nBits/(Pixel*Frame) : 0.166\nStream size : 663 MiB (89%)\nWriting library : XviD 64\n\n\n\nAudio\nID : 1\nFormat : MPEG Audio\nFormat version : Version 1\nFormat profile : Layer 3\nMode : Joint stereo\nMode extension : MS Stereo\nCodec ID : 55\nCodec ID/Hint : MP3\nDuration : 1h 20mn\nBit rate mode : Constant\nBit rate : 128 Kbps\nChannel(s) : 2 channels\nSampling rate : 44.1 KHz\nCompression mode : Lossy\nStream size : 74.0 MiB (10%)\nAlignment : Split accross interleaves\nInterleave, duration : 33 ms (1.00 video frame)\nInterleave, preload duration : 501 ms\n\n\nSample : Included\nSubtitle : Hardcoded\n\n\nSynosis : Five days in the lives of an exorcist (Eloy Palma) and his granddaughter (Alba), working in the Barcelona area. ","torrent":{"xt":"urn:btih:10c281b2d02d5acb0d5c1fa44dbebf0936f2d3e7","amp;dn":"Asmodexia+2014+WEBRip+Eng+HC+Subs+LoneWolf666","amp;tr":["udp%3A%2F%2Ftracker.openbittorrent.com%3A80","udp%3A%2F%2Fopen.demonii.com%3A1337","udp%3A%2F%2Ftracker.coppersurfer.tk%3A6969","udp%3A%2F%2Fexodus.desync.com%3A6969"],"infoHash":"10c281b2d02d5acb0d5c1fa44dbebf0936f2d3e7","infoHashBuffer":{"type":"Buffer","data":[16,194,129,178,208,45,90,203,13,92,31,164,77,190,191,9,54,242,211,231]},"announce":[],"urlList":[]}}